<svg xmlns="http://www.w3.org/2000/svg" width="500" height="750" viewBox="0 0 500 750"><rect width="100%" height="100%" fill="#DDDDDD"/><path fill="#999999" d="M126.345 352.365h6.16v37.6h-3.59q-.83 0-1.39-.27-.56-.28-1.08-.93l-19.63-25.06q.16 1.72.16 3.17v23.09h-6.16v-37.6h3.66q.44 0 .77.04.32.04.57.16.25.12.48.34.24.22.52.58l19.71 25.17q-.08-.91-.13-1.79-.05-.89-.05-1.64v-22.86Zm25.32 10.51q2.96 0 5.4.96 2.43.96 4.16 2.73t2.66 4.32q.94 2.54.94 5.69 0 3.17-.94 5.72-.93 2.55-2.66 4.34-1.73 1.8-4.16 2.76-2.44.96-5.4.96-2.99 0-5.43-.96-2.45-.96-4.18-2.76-1.72-1.79-2.67-4.34t-.95-5.72q0-3.15.95-5.69.95-2.55 2.67-4.32 1.73-1.77 4.18-2.73 2.44-.96 5.43-.96Zm0 22.54q3.33 0 4.93-2.24 1.6-2.23 1.6-6.55 0-4.31-1.6-6.58-1.6-2.26-4.93-2.26-3.38 0-5 2.28-1.63 2.27-1.63 6.56 0 4.29 1.63 6.54 1.62 2.25 5 2.25Zm38.71-.91h7.08q1.95 0 3.27-.47 1.33-.47 2.12-1.25t1.15-1.82q.35-1.04.35-2.21 0-1.22-.39-2.19-.39-.98-1.23-1.67-.83-.69-2.14-1.05-1.31-.36-3.16-.36h-7.05v11.02Zm5.96-26.73h-5.96v10.87h5.57q3.59 0 5.42-1.3t1.83-4.13q0-2.94-1.66-4.19-1.67-1.25-5.2-1.25Zm-12.95-5.41h12.95q3.69 0 6.32.71 2.62.7 4.3 2 1.68 1.3 2.46 3.14.78 1.85.78 4.16 0 1.33-.39 2.54t-1.21 2.26q-.82 1.05-2.08 1.91-1.26.86-3.01 1.46 7.75 1.74 7.75 8.37 0 2.39-.91 4.42t-2.65 3.5q-1.74 1.47-4.29 2.3-2.55.83-5.82.83h-14.2v-37.6Zm47.32 30.71v-4.5q-2.78.13-4.68.48t-3.04.9q-1.15.55-1.64 1.27-.49.73-.49 1.59 0 1.69 1 2.42t2.61.73q1.98 0 3.42-.72 1.44-.71 2.82-2.17Zm-13.57-14.01-1.15-2.06q4.61-4.21 11.08-4.21 2.34 0 4.19.77 1.84.76 3.12 2.13 1.27 1.36 1.93 3.26.67 1.9.67 4.16v16.85h-2.92q-.91 0-1.4-.27-.49-.28-.78-1.11l-.57-1.92q-1.02.91-1.98 1.6-.96.69-2 1.15-1.04.47-2.22.72-1.19.25-2.62.25-1.69 0-3.12-.46-1.43-.45-2.47-1.36-1.04-.91-1.61-2.27-.57-1.35-.57-3.14 0-1.02.34-2.02t1.1-1.91q.77-.91 1.99-1.71 1.22-.81 3.01-1.41 1.78-.6 4.14-.97 2.37-.38 5.41-.46v-1.56q0-2.68-1.14-3.96-1.15-1.29-3.31-1.29-1.56 0-2.58.36-1.03.37-1.81.82-.78.46-1.42.82-.63.37-1.41.37-.68 0-1.15-.36-.47-.35-.75-.81Zm46.67-2.47-1.69 2.34q-.29.36-.56.57-.27.21-.79.21-.5 0-.97-.3-.46-.3-1.11-.68-.65-.38-1.55-.68-.9-.29-2.22-.29-1.69 0-2.97.61-1.27.61-2.12 1.75-.84 1.15-1.26 2.77-.41 1.63-.41 3.68 0 2.13.45 3.8.46 1.66 1.31 2.79.86 1.13 2.08 1.72 1.23.58 2.76.58 1.53 0 2.48-.38.95-.37 1.6-.83.65-.45 1.13-.83.48-.38 1.08-.38.78 0 1.17.6l1.85 2.34q-1.07 1.25-2.32 2.09-1.24.85-2.58 1.36-1.34.5-2.76.71-1.42.21-2.82.21-2.47 0-4.65-.92-2.19-.93-3.83-2.69-1.63-1.77-2.58-4.33-.95-2.56-.95-5.84 0-2.94.84-5.45.85-2.51 2.49-4.34 1.63-1.83 4.05-2.87t5.57-1.04q2.99 0 5.24.96 2.24.96 4.04 2.76Zm4.26-15.27h6.43v22.13h1.19q.65 0 1.03-.17.37-.17.76-.69l6.64-8.19q.41-.54.92-.83.51-.29 1.31-.29h5.88l-8.3 9.91q-.88 1.17-1.92 1.79.54.39.97.91.43.52.82 1.12l8.9 12.95h-5.8q-.76 0-1.3-.25-.55-.24-.91-.89l-6.82-10.12q-.36-.6-.75-.78-.39-.18-1.17-.18h-1.45v12.22h-6.43v-38.64Zm44.54 30.74v-11.96q-1.09-1.33-2.38-1.88-1.28-.54-2.77-.54-1.45 0-2.62.54-1.17.55-2 1.65-.84 1.11-1.28 2.81-.44 1.71-.44 4.02 0 2.34.38 3.97.37 1.62 1.08 2.65.7 1.02 1.71 1.48 1.01.45 2.26.45 2 0 3.41-.83 1.4-.83 2.65-2.36Zm0-30.74h6.42v38.64h-3.92q-1.28 0-1.62-1.17l-.54-2.57q-1.61 1.84-3.71 2.99-2.09 1.14-4.87 1.14-2.18 0-4-.91-1.82-.91-3.14-2.64-1.31-1.73-2.03-4.28-.71-2.54-.71-5.82 0-2.96.81-5.51.8-2.55 2.31-4.42t3.61-2.93q2.11-1.05 4.74-1.05 2.23 0 3.82.7 1.58.7 2.83 1.9v-14.07Zm18.44 13.58.39 3.01q1.24-2.39 2.96-3.76 1.72-1.36 4.06-1.36 1.84 0 2.96.81l-.42 4.81q-.13.46-.37.66-.25.19-.67.19-.39 0-1.15-.13-.77-.13-1.5-.13-1.06 0-1.9.32-.83.31-1.49.89-.66.59-1.17 1.42-.51.83-.95 1.9v16.43h-6.42v-26.68h3.77q.99 0 1.38.35.38.36.52 1.27Zm25.53-2.03q2.96 0 5.39.96 2.43.96 4.16 2.73t2.67 4.32q.93 2.54.93 5.69 0 3.17-.93 5.72-.94 2.55-2.67 4.34-1.73 1.8-4.16 2.76-2.43.96-5.39.96-2.99 0-5.44-.96-2.44-.96-4.17-2.76-1.73-1.79-2.68-4.34-.95-2.55-.95-5.72 0-3.15.95-5.69.95-2.55 2.68-4.32 1.73-1.77 4.17-2.73 2.45-.96 5.44-.96Zm0 22.54q3.33 0 4.92-2.24 1.6-2.23 1.6-6.55 0-4.31-1.6-6.58-1.59-2.26-4.92-2.26-3.38 0-5.01 2.28-1.62 2.27-1.62 6.56 0 4.29 1.62 6.54 1.63 2.25 5.01 2.25Zm24.49-14.33v11.96q1.09 1.33 2.38 1.88 1.28.54 2.79.54 1.46 0 2.63-.54 1.17-.55 1.99-1.67.82-1.12 1.26-2.82.44-1.7.44-4.02 0-2.34-.38-3.96-.37-1.63-1.08-2.64-.7-1.01-1.7-1.48t-2.27-.47q-2 0-3.41.84-1.4.85-2.65 2.38Zm-.86-6.63.52 2.47q1.64-1.84 3.72-2.99 2.08-1.14 4.89-1.14 2.18 0 3.99.91 1.8.91 3.12 2.64 1.31 1.73 2.03 4.26.71 2.54.71 5.81 0 2.99-.81 5.54-.8 2.55-2.3 4.42-1.49 1.87-3.61 2.93-2.12 1.05-4.74 1.05-2.24 0-3.83-.69-1.58-.69-2.83-1.91v10.92h-6.42v-35.39h3.92q1.25 0 1.64 1.17Z"/></svg>